<svg version="1.1" id="Layer_1" xmlns="http://www.w3.org/2000/svg" x="0" y="0" viewBox="0 0 256 256" xml:space="preserve"><style>.st0{fill:gray}</style><path class="st0" d="M217.8 127.8c1.4-.5 2.7-1 4-1.6l7.6 6.7c3.3-1.8 6.3-4.1 9-6.6l-4-9.3c1.9-2.1 3.6-4.5 5-7l10.1 1c1.6-3.4 2.7-6.9 3.5-10.6l-8.7-5.1c.3-2.8.4-5.7 0-8.6l8.7-5.1c-.4-1.8-.8-3.6-1.4-5.4-.6-1.8-1.3-3.5-2-5.2l-10 1c-1.4-2.5-3.2-4.8-5.1-6.9l4-9.3c-2.8-2.5-5.8-4.7-9-6.6l-7.6 6.7c-2.6-1.2-5.3-2.1-8.2-2.7l-2.2-9.9c-3.7-.4-7.4-.5-11.1 0l-2.2 9.9c-1.4.3-2.8.6-4.2 1.1-1.4.5-2.7 1-4 1.6l-7.6-6.7c-3.3 1.8-6.3 4.1-9 6.6l4 9.3c-1.9 2.1-3.6 4.5-5 7l-10.1-1c-1.6 3.4-2.7 6.9-3.5 10.6l8.7 5.1c-.3 2.8-.4 5.7 0 8.6l-8.7 5.1c.4 1.8.8 3.6 1.4 5.4.6 1.8 1.3 3.5 2 5.2l10-1c1.4 2.5 3.2 4.9 5.1 7l-4 9.3c2.8 2.5 5.8 4.7 9 6.6l7.6-6.7c2.6 1.2 5.3 2.1 8.2 2.7l2.2 9.9c3.7.4 7.4.5 11.1 0l2.2-9.9 4.2-1.2zm-24.9-32.6c-2.3-7.2 1.6-14.9 8.8-17.2 7.2-2.3 14.9 1.6 17.2 8.8 2.3 7.2-1.6 14.9-8.8 17.2-7.2 2.3-14.9-1.6-17.2-8.8z"/><path class="st0" d="M104.5 211.1c2.5-.6 5-1.2 7.4-2 2.5-.8 4.9-1.7 7.2-2.7l-2.1-13.8c3.4-1.7 6.7-3.6 9.7-5.8l11.2 8.4c4-3.2 7.7-6.7 11.1-10.6l-7.9-11.6c2.3-3 4.4-6.2 6.2-9.5l13.8 2.8c2.2-4.6 4.1-9.4 5.4-14.4l-12.2-7c.8-3.7 1.3-7.4 1.5-11.2l13.6-3.5c0-5.1-.4-10.2-1.4-15.3l-14-1c-.4-1.8-.9-3.7-1.5-5.5-.6-1.8-1.3-3.6-2-5.3l10.7-9c-2.2-4.7-4.9-9.1-7.9-13.2l-13 5.2c-2.4-3-5-5.7-7.9-8.2l5.7-12.8c-4-3.2-8.3-6.1-12.9-8.5l-9.5 10.3c-3.4-1.6-7-3-10.6-4l-.4-14c-5-1.1-10-1.8-15.2-2.1l-4.1 13.4c-3.7 0-7.5.4-11.3 1l-6.4-12.4c-2.5.6-5 1.2-7.4 2-2.5.8-4.9 1.7-7.2 2.7l2.1 13.8C52 69 48.7 71 45.7 73.2l-11.2-8.4c-4 3.2-7.7 6.7-11.1 10.6l8 11.6c-2.3 3-4.4 6.1-6.2 9.5l-13.8-2.8C9.1 98.2 7.3 103 5.9 108l12.2 7c-.8 3.7-1.3 7.4-1.5 11.2L3 129.7c0 5.1.4 10.2 1.4 15.3l14 1c.4 1.8.9 3.7 1.5 5.5.6 1.8 1.3 3.6 2 5.3l-10.7 9c2.2 4.7 4.9 9.1 7.9 13.2l13-5.2c2.4 3 5 5.7 7.8 8.2l-5.7 12.8c4 3.2 8.3 6.1 12.9 8.5l9.5-10.3c3.4 1.6 7 3 10.6 4l.4 14c5 1.2 10 1.8 15.2 2.1l4.1-13.4c3.7 0 7.5-.4 11.3-1l6.3 12.4zM82 116.9c7.2-2.3 14.9 1.6 17.2 8.8 2.3 7.2-1.6 14.9-8.8 17.2-7.2 2.3-14.9-1.6-17.2-8.8-2.3-7.2 1.6-14.9 8.8-17.2z"/></svg>