<?xml version="1.0" encoding="utf-8"?>
<!-- Generator: Adobe Illustrator 22.1.0, SVG Export Plug-In . SVG Version: 6.00 Build 0)  -->
<svg version="1.1" id="Layer_1" xmlns="http://www.w3.org/2000/svg" xmlns:xlink="http://www.w3.org/1999/xlink" x="0px" y="0px"
	 viewBox="0 0 256 256" style="enable-background:new 0 0 256 256;" xml:space="preserve">
<style type="text/css">
	.st0{fill:#808080;}
</style>
<g>
	<path class="st0" d="M216,3H78.1c0,0-1.2,0-4.5,0c-3.9,0-8.9,1.9-13.4,6.4c-6.3,6.3-25.7,26.7-31.8,33.2c-3.3,3.5-6,8.8-6,13.8
		c0,1.5,0,4.5,0,4.5v174.6c0,9.7,7.9,17.6,17.6,17.6H216c9.7,0,17.6-7.9,17.6-17.6V20.6C233.6,10.9,225.8,3,216,3z M66.3,16.6v26.6
		c0,3.2-2.6,5.7-5.7,5.7H35.2L66.3,16.6z M221.8,235.4c0,3.2-2.6,5.7-5.7,5.7H40c-3.2,0-5.7-2.6-5.7-5.7V60.8h26.3
		c9.7,0,17.6-7.9,17.6-17.6V14.9H216c3.2,0,5.7,2.6,5.7,5.7V235.4z"/>
</g>
</svg>
