<?xml version="1.0" encoding="utf-8"?>
<!-- Generator: Adobe Illustrator 21.1.0, SVG Export Plug-In . SVG Version: 6.00 Build 0)  -->
<svg version="1.1" id="Layer_1" xmlns="http://www.w3.org/2000/svg" xmlns:xlink="http://www.w3.org/1999/xlink" x="0px" y="0px"
	 viewBox="0 0 256 256" style="enable-background:new 0 0 256 256;" xml:space="preserve">
<style type="text/css">
	.st0{fill:#808080;}
</style>
<g>
	<path class="st0" d="M181.4,242.5c-3,0-6.1-0.4-9-1.3l-2.2-0.6l-46.5-25.2l-24.2,11.5l-26.2,12.5l-2,0.5c-2.3,0.6-4.8,0.9-7.2,0.9
		c-15.2,0-27.2-11.8-27.4-26.9l0-1.9l11-52.9l-37.2-37l-0.3-0.3c-7.1-7.7-9.3-18.1-5.5-27.1c3.6-8.7,12.1-14.7,22.6-15.9l52.3-6
		l24.8-45.4l0.1-0.2c4.8-8.4,14.3-13.6,24.6-13.6c11.4,0,21.3,6.3,25.2,15.9l9,19l12.8,26.9l54.2,9.1c9.5,1.3,17.5,7.2,20.9,15.8
		c3.4,8.5,1.6,17.7-4.7,24l-0.4,0.4L203,163l7.5,51.2l0,1.5C210.1,230.7,197.3,242.5,181.4,242.5
		C181.4,242.5,181.4,242.5,181.4,242.5z"/>
</g>
</svg>
