<svg xmlns="http://www.w3.org/2000/svg" viewBox="0 0 256 256"  xmlns:v="https://vecta.io/nano"><path d="M181.4 242.5c-3 0-6.1-.4-9-1.3l-2.2-.6-46.5-25.2-24.2 11.5-26.2 12.5-2 .5c-2.3.6-4.8.9-7.2.9-15.2 0-27.2-11.8-27.4-26.9V212l11-52.9-37.2-37-.3-.3c-7.1-7.7-9.3-18.1-5.5-27.1C8.3 86 16.8 80 27.3 78.8l52.3-6 24.8-45.4.1-.2c4.8-8.4 14.3-13.6 24.6-13.6 11.4 0 21.3 6.3 25.2 15.9l9 19 12.8 26.9 54.2 9.1c9.5 1.3 17.5 7.2 20.9 15.8 3.4 8.5 1.6 17.7-4.7 24l-.4.4L203 163l7.5 51.2v1.5c-.4 15-13.2 26.8-29.1 26.8z" fill="gray"/></svg>