<?xml version="1.0" encoding="utf-8"?>
<!-- Generator: Adobe Illustrator 21.1.0, SVG Export Plug-In . SVG Version: 6.00 Build 0)  -->
<svg version="1.1" id="Layer_1" xmlns="http://www.w3.org/2000/svg" xmlns:xlink="http://www.w3.org/1999/xlink" x="0px" y="0px"
	 viewBox="0 0 256 256" style="enable-background:new 0 0 256 256;" xml:space="preserve">
<style type="text/css">
	.st0{fill:#808080;}
</style>
<g>
	<path class="st0" d="M195.4,41.6H60.6c-3.3,0-5.9,2.4-5.9,5.3c0,2.9,2.7,5.3,5.9,5.3h134.7c3.3,0,5.9-2.4,5.9-5.3
		C201.3,44,198.6,41.6,195.4,41.6z"/>
	<path class="st0" d="M195.4,66.2H60.6c-3.3,0-5.9,2.4-5.9,5.3c0,2.9,2.7,5.3,5.9,5.3h134.7c3.3,0,5.9-2.4,5.9-5.3
		C201.3,68.5,198.6,66.2,195.4,66.2z"/>
	<path class="st0" d="M195.4,90.7H60.6c-3.3,0-5.9,2.4-5.9,5.3c0,2.9,2.7,5.3,5.9,5.3h134.7c3.3,0,5.9-2.4,5.9-5.3
		C201.3,93,198.6,90.7,195.4,90.7z"/>
	<path class="st0" d="M195.4,115.2H60.6c-3.3,0-5.9,2.4-5.9,5.3c0,2.9,2.7,5.3,5.9,5.3h134.7c3.3,0,5.9-2.4,5.9-5.3
		C201.3,117.6,198.6,115.2,195.4,115.2z"/>
	<path class="st0" d="M216,3H40c-9.7,0-17.6,7.9-17.6,17.6v214.8c0,9.7,7.9,17.6,17.6,17.6H216c9.7,0,17.6-7.9,17.6-17.6V20.6
		C233.6,10.9,225.8,3,216,3z M221.8,235.4c0,3.2-2.6,5.7-5.7,5.7H40c-3.2,0-5.7-2.6-5.7-5.7V20.6c0-3.2,2.6-5.7,5.7-5.7H216
		c3.2,0,5.7,2.6,5.7,5.7V235.4z"/>
	<path class="st0" d="M195.4,141H60.6c-3.3,0-5.9,2.4-5.9,5.3c0,2.9,2.7,5.3,5.9,5.3h134.7c3.3,0,5.9-2.4,5.9-5.3
		C201.3,143.4,198.6,141,195.4,141z"/>
	<path class="st0" d="M138.9,166.7H60.6c-3.3,0-5.9,2.4-5.9,5.3c0,2.9,2.7,5.3,5.9,5.3h78.3c3.3,0,5.9-2.4,5.9-5.3
		C144.8,169,142.2,166.7,138.9,166.7z"/>
</g>
</svg>
