<svg xmlns="http://www.w3.org/2000/svg" xmlns:xlink="http://www.w3.org/1999/xlink" viewBox="0 0 256 256" xmlns:v="https://vecta.io/nano"><g fill="gray"><use xlink:href="#B"/><use xlink:href="#C"/><use xlink:href="#C" y="24.5"/><use xlink:href="#B" y="73.6"/><path d="M216 3H40c-9.7 0-17.6 7.9-17.6 17.6v214.8c0 9.7 7.9 17.6 17.6 17.6h176c9.7 0 17.6-7.9 17.6-17.6V20.6c0-9.7-7.8-17.6-17.6-17.6zm5.8 232.4c0 3.2-2.6 5.7-5.7 5.7H40c-3.2 0-5.7-2.6-5.7-5.7V20.6c0-3.2 2.6-5.7 5.7-5.7h176c3.2 0 5.7 2.6 5.7 5.7v214.8z"/><use xlink:href="#B" y="99.4"/><path d="M138.9 166.7H60.6c-3.3 0-5.9 2.4-5.9 5.3s2.7 5.3 5.9 5.3h78.3c3.3 0 5.9-2.4 5.9-5.3 0-3-2.6-5.3-5.9-5.3z"/></g><defs ><path id="B" d="M195.4 41.6H60.6c-3.3 0-5.9 2.4-5.9 5.3s2.7 5.3 5.9 5.3h134.7c3.3 0 5.9-2.4 5.9-5.3.1-2.9-2.6-5.3-5.8-5.3z"/><path id="C" d="M195.4 66.2H60.6c-3.3 0-5.9 2.4-5.9 5.3s2.7 5.3 5.9 5.3h134.7c3.3 0 5.9-2.4 5.9-5.3.1-3-2.6-5.3-5.8-5.3z"/></defs></svg>