<svg xmlns="http://www.w3.org/2000/svg" xmlns:xlink="http://www.w3.org/1999/xlink" viewBox="0 0 256 256" xmlns:v="https://vecta.io/nano"><g fill="gray"><path d="M249.9 141.6c-1.9-5.7-4.6-10.9-8-15.5l-.8-1.1-57-76.5-.3-.4c-4.8-6.8-12.7-11.3-21.7-11.3-14.6 0-26.4 11.8-26.5 26.3v.4 18h-15.2v-18-.4c-.1-14.6-11.9-26.3-26.5-26.3-9 0-16.9 4.5-21.7 11.3l-.3.4-57 76.5-.8 1.1.8-1.1-.8 1.1a58.42 58.42 0 0 0-8 15.5C4 147.7 3 154 3 160.5c0 32.4 26.4 58.7 58.7 58.7 30.7 0 56-23.7 58.5-53.8.1-1.6.2-3.2.2-4.8 0-1.7-.1-3.3-.2-4.9v-17.5h15.5v17.5c-.1 1.6-.2 3.3-.2 4.9s.1 3.2.2 4.8c2.5 30.1 27.8 53.8 58.5 53.8 32.4 0 58.7-26.3 58.7-58.7.1-6.5-.9-12.8-3-18.9zM61.7 208.1c-26.2 0-47.6-21.4-47.6-47.6 0-26.3 21.4-47.6 47.6-47.6 26.3 0 47.6 21.4 47.6 47.6S88 208.1 61.7 208.1zm132.6 0c-26.3 0-47.6-21.4-47.6-47.6 0-26.3 21.4-47.6 47.6-47.6s47.6 21.4 47.6 47.6-21.4 47.6-47.6 47.6z"/><use xlink:href="#B"/><use xlink:href="#B" x="132.6"/></g><defs ><path id="B" d="M24.5 165.1h-.2c-2.3-.1-4-2-3.9-4.3a43.69 43.69 0 0 1 43.7-41.7c2.3 0 4.1 1.8 4.1 4.1s-1.8 4.1-4.1 4.1c-19 0-34.6 14.9-35.4 33.8-.2 2.3-2 4-4.2 4z"/></defs></svg>