<?xml version="1.0" encoding="utf-8"?>
<!-- Generator: Adobe Illustrator 21.1.0, SVG Export Plug-In . SVG Version: 6.00 Build 0)  -->
<svg version="1.1" id="Layer_1" xmlns="http://www.w3.org/2000/svg" xmlns:xlink="http://www.w3.org/1999/xlink" x="0px" y="0px"
	 viewBox="0 0 256 256" style="enable-background:new 0 0 256 256;" xml:space="preserve">
<style type="text/css">
	.st0{fill:#808080;}
</style>
<g>
	<g>
		<path class="st0" d="M249.9,141.6c-1.9-5.7-4.6-10.9-8-15.5l-0.8-1.1l-57-76.5l-0.3-0.4c-4.8-6.8-12.7-11.3-21.7-11.3
			c-14.6,0-26.4,11.8-26.5,26.3v0.4l0,18h-15.2l0-18v-0.4c-0.1-14.6-11.9-26.3-26.5-26.3c-9,0-16.9,4.5-21.7,11.3l-0.3,0.4l-57,76.5
			l-0.8,1.1l0.8-1.1l-0.8,1.1c-3.4,4.7-6.1,9.9-8,15.5C4,147.7,3,154,3,160.5c0,32.4,26.4,58.7,58.7,58.7c30.7,0,56-23.7,58.5-53.8
			c0.1-1.6,0.2-3.2,0.2-4.8c0-1.7-0.1-3.3-0.2-4.9l0-17.5h15.5l0,17.5c-0.1,1.6-0.2,3.3-0.2,4.9c0,1.6,0.1,3.2,0.2,4.8
			c2.5,30.1,27.8,53.8,58.5,53.8c32.4,0,58.7-26.3,58.7-58.7C253,154,252,147.7,249.9,141.6z M61.7,208.1
			c-26.2,0-47.6-21.4-47.6-47.6c0-26.3,21.4-47.6,47.6-47.6c26.3,0,47.6,21.4,47.6,47.6C109.3,186.7,88,208.1,61.7,208.1z
			 M194.3,208.1c-26.3,0-47.6-21.4-47.6-47.6c0-26.3,21.4-47.6,47.6-47.6c26.2,0,47.6,21.4,47.6,47.6
			C241.9,186.7,220.5,208.1,194.3,208.1z"/>
	</g>
	<g>
		<path class="st0" d="M24.5,165.1c-0.1,0-0.1,0-0.2,0c-2.3-0.1-4-2-3.9-4.3c1.1-23.4,20.3-41.7,43.7-41.7c2.3,0,4.1,1.8,4.1,4.1
			c0,2.3-1.8,4.1-4.1,4.1c-19,0-34.6,14.9-35.4,33.8C28.5,163.4,26.7,165.1,24.5,165.1z"/>
	</g>
	<g>
		<path class="st0" d="M157.1,165.1c-0.1,0-0.1,0-0.2,0c-2.3-0.1-4-2-3.9-4.3c1.1-23.4,20.3-41.7,43.7-41.7c2.3,0,4.1,1.8,4.1,4.1
			c0,2.3-1.8,4.1-4.1,4.1c-19,0-34.6,14.9-35.4,33.8C161.1,163.4,159.3,165.1,157.1,165.1z"/>
	</g>
</g>
</svg>
