<?xml version="1.0" encoding="utf-8"?>
<!-- Generator: Adobe Illustrator 21.1.0, SVG Export Plug-In . SVG Version: 6.00 Build 0)  -->
<svg version="1.1" id="Layer_1" xmlns="http://www.w3.org/2000/svg" xmlns:xlink="http://www.w3.org/1999/xlink" x="0px" y="0px"
	 viewBox="0 0 256 256" style="enable-background:new 0 0 256 256;" xml:space="preserve">
<style type="text/css">
	.st0{fill:#808080;}
</style>
<path id="XMLID_23_" class="st0" d="M253.2,192c-1.7-7-5.1-12.1-10.3-15.3c-1.4-0.9-2.9-1.5-4.3-2c4.9-10.5,6.7-25.4-6-39.3
	c-9.6-10.6-23.3-11-33.4-9.4c4-16.4,2-39.1-8.6-56.6c-9.3-15.3-28.6-32.9-68.1-29.7c-20.6,1.6-36.2,9.5-46.4,23.5
	c-14.6,20-14,47.2-12.3,61.9c-18-3.3-43.7,0-55.2,29.1c-7.3,18.4-5.9,39.2,3.5,53c6,8.8,14.6,13.7,24.2,13.7h196.3
	c6.8,0,12.7-2.7,16.6-7.6C253.6,207.6,255.1,199.9,253.2,192z M120,136.7l-8.1-8.1v56.1c0,3.6-2.9,6.5-6.5,6.5
	c-3.6,0-6.5-2.9-6.5-6.5v-56.1l-8.2,8.2c-2.5,2.5-6.6,2.5-9.1,0c-2.5-2.5-2.5-6.6,0-9.1l19.2-19.2c1.2-1.2,2.9-1.9,4.6-1.9
	c1.7,0,3.4,0.7,4.6,1.9l19.2,19.2c2.5,2.5,2.5,6.6,0,9.1c-1.3,1.3-2.9,1.9-4.6,1.9S121.3,137.9,120,136.7z M176.3,170l-19.2,19.2
	c-1.2,1.2-2.9,1.9-4.6,1.9c-1.7,0-3.4-0.7-4.6-1.9L128.9,170c-2.5-2.5-2.5-6.6,0-9.1c2.5-2.5,6.6-2.5,9.1,0l8.1,8.1v-56.1
	c0-3.6,2.9-6.5,6.5-6.5c3.6,0,6.5,2.9,6.5,6.5V169l8.2-8.2c2.5-2.5,6.6-2.5,9.1,0C178.9,163.4,178.9,167.5,176.3,170z"/>
</svg>
