<svg xmlns="http://www.w3.org/2000/svg" viewBox="0 0 256 256"  xmlns:v="https://vecta.io/nano"><path d="M253.2 192c-1.7-7-5.1-12.1-10.3-15.3-1.4-.9-2.9-1.5-4.3-2 4.9-10.5 6.7-25.4-6-39.3-9.6-10.6-23.3-11-33.4-9.4 4-16.4 2-39.1-8.6-56.6-9.3-15.3-28.6-32.9-68.1-29.7-20.6 1.6-36.2 9.5-46.4 23.5-14.6 20-14 47.2-12.3 61.9-18-3.3-43.7 0-55.2 29.1-7.3 18.4-5.9 39.2 3.5 53 6 8.8 14.6 13.7 24.2 13.7h196.3c6.8 0 12.7-2.7 16.6-7.6 4.4-5.7 5.9-13.4 4-21.3zM120 136.7l-8.1-8.1v56.1a6.49 6.49 0 1 1-13 0v-56.1l-8.2 8.2a6.46 6.46 0 0 1-9.1 0 6.46 6.46 0 0 1 0-9.1l19.2-19.2c1.2-1.2 2.9-1.9 4.6-1.9s3.4.7 4.6 1.9l19.2 19.2a6.46 6.46 0 0 1 0 9.1c-1.3 1.3-2.9 1.9-4.6 1.9s-3.3-.8-4.6-2zm56.3 33.3l-19.2 19.2c-1.2 1.2-2.9 1.9-4.6 1.9s-3.4-.7-4.6-1.9l-19-19.2a6.46 6.46 0 0 1 0-9.1 6.46 6.46 0 0 1 9.1 0l8.1 8.1v-56.1a6.49 6.49 0 1 1 13 0V169l8.2-8.2a6.46 6.46 0 0 1 9.1 0c2.5 2.6 2.5 6.7-.1 9.2z" fill="gray"/></svg>