<?xml version="1.0" encoding="utf-8"?>
<!-- Generator: Adobe Illustrator 21.1.0, SVG Export Plug-In . SVG Version: 6.00 Build 0)  -->
<svg version="1.1" id="Layer_1" xmlns="http://www.w3.org/2000/svg" xmlns:xlink="http://www.w3.org/1999/xlink" x="0px" y="0px"
	 viewBox="0 0 256 256" style="enable-background:new 0 0 256 256;" xml:space="preserve">
<style type="text/css">
	.st0{fill:#808080;}
</style>
<g id="XMLID_6_">
	<path id="XMLID_8_" class="st0" d="M214.1,6.7c-3.5-3.5-9.3-3.5-12.8,0c-3.5,3.5-3.5,9.3,0,12.8C222,40.2,233.4,67.7,233.4,97
		c0,29.3-11.4,56.8-32.1,77.5c-3.5,3.5-3.5,9.3,0,12.8c1.8,1.8,4.1,2.7,6.4,2.7c2.3,0,4.6-0.9,6.4-2.7
		c24.1-24.1,37.4-56.2,37.4-90.4S238.2,30.8,214.1,6.7z"/>
	<path id="XMLID_67_" class="st0" d="M172.5,158.6c1.8,1.8,4.1,2.7,6.4,2.7c2.3,0,4.6-0.9,6.4-2.7c34-33.9,34-89.2,0-123.2
		c-3.5-3.5-9.3-3.5-12.8,0c-3.5,3.5-3.5,9.3,0,12.8c26.9,26.9,26.9,70.6,0,97.5C168.9,149.3,168.9,155,172.5,158.6z"/>
	<path id="XMLID_68_" class="st0" d="M22.6,97c0-29.3,11.4-56.8,32.1-77.5c3.5-3.5,3.5-9.3,0-12.8c-3.5-3.5-9.3-3.5-12.8,0
		C17.8,30.8,4.5,62.9,4.5,97s13.3,66.2,37.4,90.4c1.8,1.8,4.1,2.7,6.4,2.7c2.3,0,4.6-0.9,6.4-2.7c3.5-3.5,3.5-9.3,0-12.8
		C34,153.8,22.6,126.3,22.6,97z"/>
	<path id="XMLID_71_" class="st0" d="M70.7,158.6c1.8,1.8,4.1,2.7,6.4,2.7c2.3,0,4.6-0.9,6.4-2.7c3.5-3.5,3.5-9.3,0-12.8
		c-26.9-26.9-26.9-70.6,0-97.5c3.5-3.6,3.5-9.3,0-12.8c-3.5-3.5-9.3-3.5-12.8,0C36.7,69.4,36.7,124.6,70.7,158.6z"/>
	<path id="XMLID_76_" class="st0" d="M156.1,240.2l-17.9-101.4c-0.2-1.2-0.6-2.2-1.2-3.2c15.5-4,27.1-18,27.1-34.8
		c0-19.9-16.2-36.1-36.1-36.1s-36.1,16.2-36.1,36.1c0,16.8,11.5,30.8,27.1,34.8c-0.5,1-1,2-1.2,3.2L100,240.2c0,0.1,0,0.1,0,0.2H60
		V254h136v-13.6h-40C156,240.3,156.1,240.2,156.1,240.2z"/>
</g>
</svg>
