<svg xmlns="http://www.w3.org/2000/svg" viewBox="0 0 256 256"  fill="gray" xmlns:v="https://vecta.io/nano"><path d="M214.1 6.7c-3.5-3.5-9.3-3.5-12.8 0s-3.5 9.3 0 12.8C222 40.2 233.4 67.7 233.4 97s-11.4 56.8-32.1 77.5c-3.5 3.5-3.5 9.3 0 12.8 1.8 1.8 4.1 2.7 6.4 2.7s4.6-.9 6.4-2.7c24.1-24.1 37.4-56.2 37.4-90.4s-13.3-66.1-37.4-90.2zm-41.6 151.9c1.8 1.8 4.1 2.7 6.4 2.7s4.6-.9 6.4-2.7c34-33.9 34-89.2 0-123.2-3.5-3.5-9.3-3.5-12.8 0s-3.5 9.3 0 12.8c26.9 26.9 26.9 70.6 0 97.5a9.05 9.05 0 0 0 0 12.9zM22.6 97c0-29.3 11.4-56.8 32.1-77.5 3.5-3.5 3.5-9.3 0-12.8s-9.3-3.5-12.8 0C17.8 30.8 4.5 62.9 4.5 97s13.3 66.2 37.4 90.4c1.8 1.8 4.1 2.7 6.4 2.7s4.6-.9 6.4-2.7c3.5-3.5 3.5-9.3 0-12.8C34 153.8 22.6 126.3 22.6 97zm48.1 61.6c1.8 1.8 4.1 2.7 6.4 2.7s4.6-.9 6.4-2.7c3.5-3.5 3.5-9.3 0-12.8-26.9-26.9-26.9-70.6 0-97.5 3.5-3.6 3.5-9.3 0-12.8s-9.3-3.5-12.8 0c-34 33.9-34 89.1 0 123.1zm85.4 81.6l-17.9-101.4c-.2-1.2-.6-2.2-1.2-3.2 15.5-4 27.1-18 27.1-34.8 0-19.9-16.2-36.1-36.1-36.1s-36.1 16.2-36.1 36.1c0 16.8 11.5 30.8 27.1 34.8-.5 1-1 2-1.2 3.2L100 240.2v.2H60V254h136v-13.6h-40c0-.1.1-.2.1-.2z"/></svg>