<svg xmlns="http://www.w3.org/2000/svg" viewBox="0 0 256 256"  xmlns:v="https://vecta.io/nano"><path d="M251.8 154.5l-20.7-94.7c-.8-3.8-4.6-6.2-8.4-5.4L73 87.2c-3.8.8-6.2 4.6-5.4 8.4l1.1 5.2-18.7 4-11.5 10.9 32-7 2.4 11-32 7-11.5 10.9 45.3-9.9 2.4 11-45.3 9.9-11.5 10.9 58.6-12.8 2.4 11-58.6 12.8-11.5 10.9L83 166l2.4 11-71.9 15.7-11.5 11 85.2-18.6 1.1 5.2c.8 3.8 4.6 6.2 8.4 5.4l149.7-32.8c3.9-.9 6.3-4.6 5.4-8.4zm-40.9-84.9l-45.6 58.9c-1.9 2.5-6.5 3.5-9.2 2l-66-34.4 120.8-26.5zM82.1 103.8l48.3 25.2L97 172.1l-14.9-68.3zm20.9 77.8l36.9-47.6 11.3 5.9c3.6 1.9 7.9 2.4 12.1 1.5s7.9-3.2 10.4-6.4l7.8-10.1 53.4 27.9L103 181.6zm85.1-65.2l33.4-43.1 14.9 68.3-48.3-25.2z" fill="gray"/></svg>