<?xml version="1.0" encoding="utf-8"?>
<!-- Generator: Adobe Illustrator 21.1.0, SVG Export Plug-In . SVG Version: 6.00 Build 0)  -->
<svg version="1.1" id="Layer_1" xmlns="http://www.w3.org/2000/svg" xmlns:xlink="http://www.w3.org/1999/xlink" x="0px" y="0px"
	 viewBox="0 0 256 256" style="enable-background:new 0 0 256 256;" xml:space="preserve">
<style type="text/css">
	.st0{fill:#808080;}
</style>
<g>
	<path class="st0" d="M251.8,154.5l-20.7-94.7c-0.8-3.8-4.6-6.2-8.4-5.4L73,87.2c-3.8,0.8-6.2,4.6-5.4,8.4l1.1,5.2L50,104.8
		l-11.5,10.9l32-7l2.4,11l-32,7l-11.5,10.9l45.3-9.9l2.4,11l-45.3,9.9l-11.5,10.9l58.6-12.8l2.4,11l-58.6,12.8l-11.5,10.9L83,166
		l2.4,11l-71.9,15.7L2,203.7l85.2-18.6l1.1,5.2c0.8,3.8,4.6,6.2,8.4,5.4l149.7-32.8C250.3,162,252.7,158.3,251.8,154.5z M210.9,69.6
		l-45.6,58.9c-1.9,2.5-6.5,3.5-9.2,2l-66-34.4L210.9,69.6z M82.1,103.8l48.3,25.2L97,172.1L82.1,103.8z M103,181.6l36.9-47.6
		l11.3,5.9c3.6,1.9,7.9,2.4,12.1,1.5c4.2-0.9,7.9-3.2,10.4-6.4l7.8-10.1l53.4,27.9L103,181.6z M188.1,116.4l33.4-43.1l14.9,68.3
		L188.1,116.4z"/>
</g>
</svg>
