<?xml version="1.0" encoding="utf-8"?>
<!-- Generator: Adobe Illustrator 21.1.0, SVG Export Plug-In . SVG Version: 6.00 Build 0)  -->
<svg version="1.1" id="Layer_1" xmlns="http://www.w3.org/2000/svg" xmlns:xlink="http://www.w3.org/1999/xlink" x="0px" y="0px"
	 viewBox="0 0 256 256" style="enable-background:new 0 0 256 256;" xml:space="preserve">
<style type="text/css">
	.st0{fill:#808080;}
</style>
<g>
	<path class="st0" d="M147.7,151.3c-5.8-3.5-12.5-5.5-19.7-5.5c-21,0-38,17-38,38c0,4.7,0.9,9.3,2.5,13.5h71.1
		c1.6-4.2,2.5-8.7,2.5-13.5c0-5.3-1.1-10.3-3-14.9l35.5-46.2L147.7,151.3z"/>
	<path class="st0" d="M128,58.8c-68.9,0-125,56.1-125,125c0,4.6,0.3,9.1,0.7,13.5h17.6c-0.6-4.4-0.9-8.9-0.9-13.5
		c0-59.3,48.2-107.5,107.5-107.5c59.3,0,107.5,48.2,107.5,107.5c0,4.6-0.3,9.1-0.9,13.5h17.6c0.5-4.4,0.7-8.9,0.7-13.5
		C253,114.8,196.9,58.8,128,58.8z"/>
</g>
</svg>
