<svg xmlns="http://www.w3.org/2000/svg" viewBox="0 0 256 256"  xmlns:v="https://vecta.io/nano"><path d="M232.4 48c-.1-.2-.3-.3-.4-.5-15.6-10.7-36.6-12.1-54.1-2.1-18 10.4-27.2 30.2-25.1 49.6L19 161.5C4.3 169-.1 187.9 8.1 202.1S35 222 48.7 213l124.5-82.7c15.7 11.6 37.5 13.5 55.5 3.1 17.5-10.1 26.7-29 25.2-47.9 0-.2-.1-.4-.2-.6-.4-.8-1.6-1.2-2.4-.7L215.2 105c-2.5 1.4-5.5.6-7-1.9l-14.4-24.9c-1.4-2.5-.6-5.5 1.9-6.9l36.1-20.8c.9-.5 1.1-1.7.6-2.5h0zM49 178.5c4.8 8.3 2 19-6.3 23.8s-19 2-23.8-6.4c-4.8-8.3-2-19 6.4-23.8s18.9-2 23.7 6.4h0z" fill="gray"/></svg>