<?xml version="1.0" encoding="utf-8"?>
<!-- Generator: Adobe Illustrator 21.1.0, SVG Export Plug-In . SVG Version: 6.00 Build 0)  -->
<svg version="1.1" id="Layer_1" xmlns="http://www.w3.org/2000/svg" xmlns:xlink="http://www.w3.org/1999/xlink" x="0px" y="0px"
	 viewBox="0 0 256 256" style="enable-background:new 0 0 256 256;" xml:space="preserve">
<style type="text/css">
	.st0{fill:#808080;}
</style>
<path class="st0" d="M232.4,48c-0.1-0.2-0.3-0.3-0.4-0.5c-15.6-10.7-36.6-12.1-54.1-2.1c-18,10.4-27.2,30.2-25.1,49.6
	C112.4,114.7,59,141,19,161.5C4.3,169-0.1,187.9,8.1,202.1C16.3,216.3,35,222,48.7,213l124.5-82.7c15.7,11.6,37.5,13.5,55.5,3.1
	c17.5-10.1,26.7-29,25.2-47.9c0-0.2-0.1-0.4-0.2-0.6c-0.4-0.8-1.6-1.2-2.4-0.7L215.2,105c-2.5,1.4-5.5,0.6-7-1.9l-14.4-24.9
	c-1.4-2.5-0.6-5.5,1.9-6.9l36.1-20.8C232.7,50,232.9,48.8,232.4,48L232.4,48z M49,178.5c4.8,8.3,2,19-6.3,23.8
	c-8.3,4.8-19,2-23.8-6.4c-4.8-8.3-2-19,6.4-23.8S44.2,170.1,49,178.5L49,178.5z"/>
</svg>
