<svg xmlns="http://www.w3.org/2000/svg" viewBox="0 0 256 256"  fill="gray" xmlns:v="https://vecta.io/nano"><path d="M33.8 55.5l71.2 84.8v64l46-18.9v-45.1l71.2-84.8zM128 213.4c-10.9 0-19.8 8.9-19.8 19.8S117.1 253 128 253s19.8-8.9 19.8-19.8-8.9-19.8-19.8-19.8zm0 27.3c-4.1 0-7.5-3.4-7.5-7.5s3.4-7.5 7.5-7.5 7.5 3.4 7.5 7.5-3.4 7.5-7.5 7.5zm0-198.1c10.9 0 19.8-8.9 19.8-19.8S138.9 3 128 3s-19.8 8.9-19.8 19.8 8.9 19.8 19.8 19.8zm0-27.3c4.1 0 7.5 3.4 7.5 7.5s-3.4 7.5-7.5 7.5-7.5-3.4-7.5-7.5 3.4-7.5 7.5-7.5zM67.9 42.6c10.9 0 19.8-8.9 19.8-19.8S78.8 3 67.9 3s-19.8 8.9-19.8 19.8S57 42.6 67.9 42.6zm0-27.3c4.1 0 7.5 3.4 7.5 7.5s-3.4 7.5-7.5 7.5-7.5-3.4-7.5-7.5 3.4-7.5 7.5-7.5zm120.2 27.3c10.9 0 19.8-8.9 19.8-19.8S199 3 188.1 3s-19.8 8.9-19.8 19.8 8.9 19.8 19.8 19.8zm0-27.3c4.1 0 7.5 3.4 7.5 7.5s-3.4 7.5-7.5 7.5-7.5-3.4-7.5-7.5 3.4-7.5 7.5-7.5z"/></svg>