<?xml version="1.0" encoding="utf-8"?>
<!-- Generator: Adobe Illustrator 21.1.0, SVG Export Plug-In . SVG Version: 6.00 Build 0)  -->
<svg version="1.1" id="Layer_1" xmlns="http://www.w3.org/2000/svg" xmlns:xlink="http://www.w3.org/1999/xlink" x="0px" y="0px"
	 viewBox="0 0 256 256" style="enable-background:new 0 0 256 256;" xml:space="preserve">
<style type="text/css">
	.st0{fill:#808080;}
</style>
<g>
	<circle class="st0" cx="79.7" cy="83.7" r="45.9"/>
	<path class="st0" d="M109.9,127.1c-8.6,6-18.9,9.5-30.2,9.5c-11.2,0-21.6-3.5-30.2-9.5C22.2,142.2,3,177.4,3,218.3h153.5
		C156.5,177.4,137.3,142.2,109.9,127.1z"/>
	<circle class="st0" cx="191.7" cy="110.7" r="36.7"/>
	<path class="st0" d="M215.8,145.4c-6.8,4.8-15.1,7.6-24.1,7.6c-9,0-17.3-2.8-24.1-7.6c-6.6,3.6-12.5,8.7-17.7,14.9
		c8.7,16.9,13.6,36.9,13.6,58H253C253,185.6,237.7,157.5,215.8,145.4z"/>
</g>
</svg>
