<?xml version="1.0" encoding="utf-8"?>
<!-- Generator: Adobe Illustrator 22.1.0, SVG Export Plug-In . SVG Version: 6.00 Build 0)  -->
<svg version="1.1" id="Layer_1" xmlns="http://www.w3.org/2000/svg" xmlns:xlink="http://www.w3.org/1999/xlink" x="0px" y="0px"
	 viewBox="0 0 256 256" style="enable-background:new 0 0 256 256;" xml:space="preserve">
<style type="text/css">
	.st0{fill:#808080;}
</style>
<path class="st0" d="M128,22C69.5,22,22,69.5,22,128c0,58.5,47.5,106,106,106c58.5,0,106-47.5,106-106C234,69.5,186.5,22,128,22z
	 M126.1,202.5c-11.1,0-20-9-20-20c0-11.1,9-20,20-20c11.1,0,20,9,20,20C146.2,193.5,137.2,202.5,126.1,202.5z M143.8,143.4v11.2
	h-34.4v-16.3c0-18.7,29.4-29.3,29.4-40.4c0-7.7-7.2-12.6-13.7-12.6c-8,0-14.5,6.9-20.8,15.1l-21.6-20c12.9-16.5,27.9-26.7,46.4-26.7
	c24.6,0,44,17.3,44,44.7C173.2,124.7,143.8,131.2,143.8,143.4z"/>
</svg>
